name rise30.9205peak61.366fall85.3838.mot
datacolumns 19
datarows 27
range 4.41832000000000 4.46164700000000
endheader
time	ground_force1_vx	ground_force1_vy	ground_force1_vz	ground_force1_px	ground_force1_py	ground_force1_pz	ground_force2_vx	ground_force2_vy	ground_force2_vz	ground_force2_px	ground_force2_py	ground_force2_pz	ground_torque1_x	ground_torque1_y	ground_torque1_z	ground_torque2_x	ground_torque2_y	ground_torque2_z	
4.41832000000000	54.79512500000000	747.85702000000003	50.06366500000000	0.36418800000000	0.00000000000000	0.11053500000000	0.00000000000000	0.00000000000000	0.00000000000000	0.00000000000000	0.00000000000000	0.00000000000000	0.00000000000000	23.18294400000000	0.00000000000000	0.00000000000000	0.00000000000000	0.00000000000000	
4.41998300000000	54.09159300000000	750.43496700000003	50.32124000000000	0.36309400000000	0.00000000000000	0.11059100000000	0.00000000000000	0.00000000000000	0.00000000000000	0.00000000000000	0.00000000000000	0.00000000000000	0.00000000000000	23.39008500000000	0.00000000000000	0.00000000000000	0.00000000000000	0.00000000000000	
4.42165000000000	53.39507200000000	752.91896799999995	50.57224200000000	0.36202100000000	0.00000000000000	0.11064400000000	0.00000000000000	0.00000000000000	0.00000000000000	0.00000000000000	0.00000000000000	0.00000000000000	0.00000000000000	23.59247100000000	0.00000000000000	0.00000000000000	0.00000000000000	0.00000000000000	
4.42331900000000	52.70624500000000	755.30746299999998	50.81609900000000	0.36096800000000	0.00000000000000	0.11069500000000	0.00000000000000	0.00000000000000	0.00000000000000	0.00000000000000	0.00000000000000	0.00000000000000	0.00000000000000	23.78964600000000	0.00000000000000	0.00000000000000	0.00000000000000	0.00000000000000	
4.42498600000000	52.02573100000000	757.59891600000003	51.05221900000000	0.35993400000000	0.00000000000000	0.11074400000000	0.00000000000000	0.00000000000000	0.00000000000000	0.00000000000000	0.00000000000000	0.00000000000000	0.00000000000000	23.98114100000000	0.00000000000000	0.00000000000000	0.00000000000000	0.00000000000000	
4.42664900000000	51.35407900000000	759.79183100000000	51.27998500000000	0.35892100000000	0.00000000000000	0.11079000000000	0.00000000000000	0.00000000000000	0.00000000000000	0.00000000000000	0.00000000000000	0.00000000000000	0.00000000000000	24.16648000000000	0.00000000000000	0.00000000000000	0.00000000000000	0.00000000000000	
4.42831500000000	50.69177600000000	761.88476600000001	51.49876900000000	0.35792600000000	0.00000000000000	0.11083400000000	0.00000000000000	0.00000000000000	0.00000000000000	0.00000000000000	0.00000000000000	0.00000000000000	0.00000000000000	24.34517900000000	0.00000000000000	0.00000000000000	0.00000000000000	0.00000000000000	
4.42998300000000	50.03924700000000	763.87634000000003	51.70793200000000	0.35695000000000	0.00000000000000	0.11087400000000	0.00000000000000	0.00000000000000	0.00000000000000	0.00000000000000	0.00000000000000	0.00000000000000	0.00000000000000	24.51675300000000	0.00000000000000	0.00000000000000	0.00000000000000	0.00000000000000	
4.43164900000000	49.39685700000000	765.76525200000003	51.90683100000000	0.35599100000000	0.00000000000000	0.11091200000000	0.00000000000000	0.00000000000000	0.00000000000000	0.00000000000000	0.00000000000000	0.00000000000000	0.00000000000000	24.68071700000000	0.00000000000000	0.00000000000000	0.00000000000000	0.00000000000000	
4.43332200000000	48.76491400000000	767.55028600000003	52.09482600000000	0.35505000000000	0.00000000000000	0.11094700000000	0.00000000000000	0.00000000000000	0.00000000000000	0.00000000000000	0.00000000000000	0.00000000000000	0.00000000000000	24.83659300000000	0.00000000000000	0.00000000000000	0.00000000000000	0.00000000000000	
4.43498800000000	48.14366900000000	769.23032799999999	52.27128300000000	0.35412600000000	0.00000000000000	0.11097900000000	0.00000000000000	0.00000000000000	0.00000000000000	0.00000000000000	0.00000000000000	0.00000000000000	0.00000000000000	24.98390900000000	0.00000000000000	0.00000000000000	0.00000000000000	0.00000000000000	
4.43664800000000	47.53332500000000	770.80436999999995	52.43558100000000	0.35321700000000	0.00000000000000	0.11100800000000	0.00000000000000	0.00000000000000	0.00000000000000	0.00000000000000	0.00000000000000	0.00000000000000	0.00000000000000	25.12220500000000	0.00000000000000	0.00000000000000	0.00000000000000	0.00000000000000	
4.43831700000000	46.93403300000000	772.27152699999999	52.58711700000000	0.35232300000000	0.00000000000000	0.11103400000000	0.00000000000000	0.00000000000000	0.00000000000000	0.00000000000000	0.00000000000000	0.00000000000000	0.00000000000000	25.25103900000000	0.00000000000000	0.00000000000000	0.00000000000000	0.00000000000000	
4.43998300000000	46.34589800000000	773.63103899999999	52.72531000000000	0.35144300000000	0.00000000000000	0.11105600000000	0.00000000000000	0.00000000000000	0.00000000000000	0.00000000000000	0.00000000000000	0.00000000000000	0.00000000000000	25.36998200000000	0.00000000000000	0.00000000000000	0.00000000000000	0.00000000000000	
4.44165000000000	45.76898300000000	774.88228500000002	52.84960800000000	0.35057600000000	0.00000000000000	0.11107600000000	0.00000000000000	0.00000000000000	0.00000000000000	0.00000000000000	0.00000000000000	0.00000000000000	0.00000000000000	25.47863000000000	0.00000000000000	0.00000000000000	0.00000000000000	0.00000000000000	
4.44332300000000	45.20330900000000	776.02478900000006	52.95948900000000	0.34972000000000	0.00000000000000	0.11109200000000	0.00000000000000	0.00000000000000	0.00000000000000	0.00000000000000	0.00000000000000	0.00000000000000	0.00000000000000	25.57660200000000	0.00000000000000	0.00000000000000	0.00000000000000	0.00000000000000	
4.44498400000000	44.64886100000000	777.05822599999999	53.05447100000000	0.34887500000000	0.00000000000000	0.11110500000000	0.00000000000000	0.00000000000000	0.00000000000000	0.00000000000000	0.00000000000000	0.00000000000000	0.00000000000000	25.66354400000000	0.00000000000000	0.00000000000000	0.00000000000000	0.00000000000000	
4.44665400000000	44.10558800000000	777.98242800000003	53.13411100000000	0.34804000000000	0.00000000000000	0.11111500000000	0.00000000000000	0.00000000000000	0.00000000000000	0.00000000000000	0.00000000000000	0.00000000000000	0.00000000000000	25.73913300000000	0.00000000000000	0.00000000000000	0.00000000000000	0.00000000000000	
4.44832900000000	43.57340900000000	778.79738999999995	53.19801200000000	0.34721400000000	0.00000000000000	0.11112200000000	0.00000000000000	0.00000000000000	0.00000000000000	0.00000000000000	0.00000000000000	0.00000000000000	0.00000000000000	25.80307700000000	0.00000000000000	0.00000000000000	0.00000000000000	0.00000000000000	
4.44998100000000	43.05221200000000	779.50327400000003	53.24582400000000	0.34639400000000	0.00000000000000	0.11112600000000	0.00000000000000	0.00000000000000	0.00000000000000	0.00000000000000	0.00000000000000	0.00000000000000	0.00000000000000	25.85511800000000	0.00000000000000	0.00000000000000	0.00000000000000	0.00000000000000	
4.45165600000000	42.54186300000000	780.10041400000000	53.27725100000000	0.34558100000000	0.00000000000000	0.11112600000000	0.00000000000000	0.00000000000000	0.00000000000000	0.00000000000000	0.00000000000000	0.00000000000000	0.00000000000000	25.89503600000000	0.00000000000000	0.00000000000000	0.00000000000000	0.00000000000000	
4.45332200000000	42.04220000000000	780.58931500000006	53.29204800000000	0.34477300000000	0.00000000000000	0.11112400000000	0.00000000000000	0.00000000000000	0.00000000000000	0.00000000000000	0.00000000000000	0.00000000000000	0.00000000000000	25.92264800000000	0.00000000000000	0.00000000000000	0.00000000000000	0.00000000000000	
4.45498900000000	41.55304400000000	780.97065699999996	53.29003100000000	0.34396900000000	0.00000000000000	0.11111800000000	0.00000000000000	0.00000000000000	0.00000000000000	0.00000000000000	0.00000000000000	0.00000000000000	0.00000000000000	25.93781300000000	0.00000000000000	0.00000000000000	0.00000000000000	0.00000000000000	
4.45664700000000	41.07419700000000	781.24529700000005	53.27107000000000	0.34316700000000	0.00000000000000	0.11111000000000	0.00000000000000	0.00000000000000	0.00000000000000	0.00000000000000	0.00000000000000	0.00000000000000	0.00000000000000	25.94042800000000	0.00000000000000	0.00000000000000	0.00000000000000	0.00000000000000	
4.45831400000000	40.60544400000000	781.41426500000000	53.23510000000000	0.34236700000000	0.00000000000000	0.11109800000000	0.00000000000000	0.00000000000000	0.00000000000000	0.00000000000000	0.00000000000000	0.00000000000000	0.00000000000000	25.93043600000000	0.00000000000000	0.00000000000000	0.00000000000000	0.00000000000000	
4.45998200000000	40.14656000000000	781.47876599999995	53.18211500000000	0.34156700000000	0.00000000000000	0.11108300000000	0.00000000000000	0.00000000000000	0.00000000000000	0.00000000000000	0.00000000000000	0.00000000000000	0.00000000000000	25.90782100000000	0.00000000000000	0.00000000000000	0.00000000000000	0.00000000000000	
4.46164700000000	39.69730500000000	781.44017799999995	53.11217100000000	0.34076600000000	0.00000000000000	0.11106600000000	0.00000000000000	0.00000000000000	0.00000000000000	0.00000000000000	0.00000000000000	0.00000000000000	0.00000000000000	25.87261200000000	0.00000000000000	0.00000000000000	0.00000000000000	0.00000000000000	
